# xmcd CD database file
#
# Track frame offsets:
#	183
#	17520
#	42458
#	60965
#	83220
#	110310
#	140105
#	152435
#	167303
#	192185
#	207443
#	231178
#	256025
#	282898
#	310678
#
# Disc length: 4438 seconds
#
# Revision: 4
# Processed by: cddbd v1.5.2PL0 Copyright (c) Steve Scherf et al.
# Submitted via: CDex 1.51
#
DISCID=ba11540f
DTITLE=Kid Ory and The Creole Jazz Band - Vol. 037 - Echoes From New Orleans
DYEAR=1960
DGENRE=Jazz
TTITLE0=Jazz Me Blues
TTITLE1=Careless Love
TTITLE2=High Society
TTITLE3=Oh, Didn't He Ramble
TTITLE4=Eh, La Bas
TTITLE5=Toot, Toot, Tootsie!
TTITLE6=Maryland, My Maryland
TTITLE7=Bugle Call Rag
TTITLE8=1919 Rag
TTITLE9=Down Home Rag
TTITLE10=Original Dixieland One Step
TTITLE11=Beale Street Blues
TTITLE12=Panama
TTITLE13=Mood Indigo
TTITLE14=Bourbon Street Parade
EXTD=YEAR: 1960
EXTT0=
EXTT1=
EXTT2=
EXTT3=
EXTT4=
EXTT5=
EXTT6=
EXTT7=
EXTT8=
EXTT9=
EXTT10=
EXTT11=
EXTT12=
EXTT13=
EXTT14=
PLAYORDER=
